<?xml version="1.0" encoding="UTF-8"?><svg xmlns="http://www.w3.org/2000/svg" viewBox="0 0 459 225.64"><g id="a"/><g id="b"><g><path d="M88.41,11.26V99.25h-16.72L27.83,45.83v53.42H7.71V11.26H24.56l43.74,53.42V11.26h20.11Z"/><path d="M158.04,38.1c5.61,4.99,8.42,12.5,8.42,22.56v38.59h-18.35v-8.42c-3.69,6.28-10.56,9.43-20.62,9.43-5.19,0-9.7-.88-13.51-2.64-3.82-1.76-6.73-4.19-8.74-7.29-2.01-3.1-3.01-6.62-3.01-10.56,0-6.28,2.36-11.23,7.1-14.83,4.73-3.6,12.04-5.4,21.93-5.4h15.58c0-4.27-1.3-7.56-3.9-9.87-2.6-2.3-6.49-3.46-11.69-3.46-3.61,0-7.15,.56-10.62,1.7-3.48,1.13-6.43,2.66-8.86,4.59l-7.04-13.7c3.69-2.6,8.11-4.61,13.26-6.03,5.16-1.42,10.45-2.14,15.9-2.14,10.47,0,18.52,2.49,24.13,7.48Zm-16.72,46.63c2.6-1.55,4.44-3.83,5.53-6.85v-6.91h-13.45c-8.05,0-12.07,2.64-12.07,7.92,0,2.52,.98,4.51,2.95,5.97,1.97,1.47,4.67,2.2,8.11,2.2s6.33-.77,8.92-2.33Z"/><path d="M244.33,38.16c5.16,5.03,7.73,12.49,7.73,22.37v38.71h-19.61V63.55c0-5.36-1.18-9.36-3.52-12-2.34-2.64-5.74-3.96-10.18-3.96-4.94,0-8.88,1.53-11.81,4.59-2.93,3.06-4.4,7.61-4.4,13.64v33.43h-19.6V5.98h19.6V38.66c2.6-2.6,5.74-4.59,9.43-5.97,3.69-1.38,7.71-2.07,12.07-2.07,8.38,0,15.14,2.51,20.3,7.54Z"/><path d="M336.66,31.62V99.25h-18.6v-8.04c-2.6,2.93-5.7,5.17-9.3,6.72s-7.5,2.33-11.69,2.33c-8.89,0-15.93-2.56-21.12-7.67-5.2-5.11-7.79-12.7-7.79-22.75V31.62h19.61v35.32c0,10.89,4.57,16.34,13.7,16.34,4.7,0,8.46-1.53,11.32-4.59,2.85-3.06,4.27-7.6,4.27-13.64V31.62h19.61Z"/><path d="M419.49,70.96h-51.15c.92,4.19,3.1,7.5,6.54,9.93,3.43,2.43,7.71,3.65,12.82,3.65,3.52,0,6.64-.52,9.36-1.57,2.72-1.05,5.26-2.7,7.6-4.97l10.43,11.31c-6.36,7.29-15.67,10.94-27.9,10.94-7.63,0-14.37-1.49-20.24-4.46-5.86-2.97-10.39-7.1-13.57-12.38-3.19-5.28-4.78-11.27-4.78-17.97s1.57-12.59,4.71-17.91c3.14-5.32,7.46-9.47,12.95-12.44,5.49-2.97,11.62-4.46,18.41-4.46s12.61,1.42,17.98,4.27c5.36,2.85,9.57,6.94,12.63,12.26,3.06,5.32,4.59,11.5,4.59,18.54,0,.25-.13,2.01-.38,5.28Zm-45.88-21.74c-3.02,2.51-4.86,5.95-5.53,10.31h33.31c-.67-4.27-2.52-7.69-5.53-10.25-3.02-2.55-6.71-3.83-11.06-3.83s-8.17,1.26-11.19,3.77Z"/><path d="M431.68,5.98h19.6V99.25h-19.6V5.98Z"/><path d="M451.29,199.05v19.6h-71.77v-19.6h71.77Z"/><path d="M84.14,180.88c2.85,3.73,4.27,8.32,4.27,13.76,0,7.71-3,13.64-8.99,17.78-6,4.15-14.73,6.22-26.21,6.22H7.71v-87.99H50.7c10.73,0,18.96,2.05,24.7,6.16s8.61,9.68,8.61,16.72c0,4.27-1.02,8.09-3.08,11.44-2.05,3.35-4.92,5.99-8.6,7.92,5.03,1.59,8.96,4.25,11.81,7.98Zm-56.19-34.88v20.74h20.23c5.03,0,8.84-.88,11.44-2.64,2.6-1.76,3.9-4.35,3.9-7.79s-1.3-6.01-3.9-7.73-6.41-2.58-11.44-2.58H27.95Zm35.89,54.68c2.72-1.76,4.09-4.48,4.09-8.17,0-7.29-5.41-10.93-16.21-10.93H27.95v21.74h23.76c5.36,0,9.4-.88,12.13-2.64Z"/><path d="M167.09,190.37h-51.15c.92,4.19,3.1,7.5,6.54,9.93,3.43,2.43,7.71,3.65,12.82,3.65,3.52,0,6.64-.52,9.36-1.57,2.72-1.05,5.26-2.7,7.6-4.97l10.43,11.31c-6.36,7.29-15.67,10.94-27.9,10.94-7.63,0-14.37-1.49-20.24-4.46-5.86-2.97-10.39-7.1-13.57-12.38-3.19-5.28-4.78-11.27-4.78-17.97s1.57-12.59,4.71-17.91,7.46-9.47,12.95-12.44c5.49-2.97,11.62-4.46,18.41-4.46s12.61,1.42,17.98,4.27c5.36,2.85,9.57,6.94,12.63,12.26,3.06,5.32,4.59,11.5,4.59,18.54,0,.25-.13,2.01-.38,5.28Zm-45.88-21.74c-3.02,2.51-4.86,5.95-5.53,10.31h33.31c-.67-4.27-2.52-7.69-5.53-10.25-3.02-2.55-6.71-3.83-11.06-3.83s-8.17,1.26-11.19,3.77Z"/><path d="M192.54,215.2c-5.74-2.97-10.22-7.1-13.45-12.38-3.23-5.28-4.84-11.27-4.84-17.97s1.61-12.7,4.84-17.98c3.22-5.28,7.71-9.4,13.45-12.38,5.74-2.97,12.21-4.46,19.42-4.46s13.34,1.49,18.67,4.46c5.32,2.98,9.19,7.23,11.62,12.76l-15.21,8.17c-3.52-6.2-8.59-9.3-15.21-9.3-5.11,0-9.35,1.68-12.7,5.03-3.35,3.35-5.03,7.92-5.03,13.7s1.68,10.35,5.03,13.7c3.35,3.35,7.59,5.03,12.7,5.03,6.7,0,11.77-3.1,15.21-9.3l15.21,8.29c-2.43,5.36-6.3,9.55-11.62,12.57-5.33,3.02-11.54,4.53-18.67,4.53s-13.68-1.49-19.42-4.46Z"/><path d="M280.84,192.13l-9.43,9.3v17.22h-19.6V125.39h19.6v52.79l28.66-27.15h23.38l-28.15,28.66,30.67,38.97h-23.76l-21.37-26.52Z"/></g></g></svg>