<?xml version="1.0" encoding="UTF-8"?><svg xmlns="http://www.w3.org/2000/svg" xmlns:xlink="http://www.w3.org/1999/xlink" viewBox="0 0 511 511"><defs><style>.d{opacity:.5;}.e{fill:#4c5256;}.f{clip-path:url(#c);}.g,.h{fill:none;}.h{stroke:#212426;stroke-miterlimit:10;}</style><clipPath id="c"><rect class="g" width="511" height="511"/></clipPath></defs><g id="a"/><g id="b"><g class="d"><g class="f"><g><path class="e" d="M240.13,68.93v188h-35.72l-93.72-114.14v114.14h-42.97V68.93h35.98l93.46,114.14V68.93h42.97Z"/><path class="e" d="M443.29,440.18v41.88h-153.35v-41.88h153.35Z"/><path class="e" d="M231.01,401.37c6.08,7.97,9.13,17.77,9.13,29.41,0,16.47-6.4,29.14-19.2,38-12.81,8.86-31.47,13.3-56,13.3H67.71v-188h91.85c22.92,0,40.51,4.39,52.77,13.16,12.26,8.77,18.4,20.68,18.4,35.72,0,9.13-2.19,17.28-6.58,24.44-4.38,7.17-10.52,12.81-18.39,16.92,10.74,3.4,19.15,9.09,25.24,17.05Zm-120.06-74.53v44.32h43.24c10.75,0,18.9-1.88,24.44-5.65,5.55-3.76,8.33-9.3,8.33-16.65s-2.78-12.84-8.33-16.52c-5.55-3.67-13.69-5.51-24.44-5.51h-43.24Zm76.68,116.83c5.82-3.76,8.73-9.58,8.73-17.46,0-15.57-11.55-23.36-34.65-23.36h-50.76v46.46h50.76c11.45,0,20.09-1.88,25.91-5.64Z"/></g><g><path class="h" d="M210.13,38.93V226.93h-35.72L80.69,112.79v114.14H37.71V38.93h35.98l93.46,114.14V38.93h42.97Z"/><path class="h" d="M413.29,410.18v41.88h-153.35v-41.88h153.35Z"/><path class="h" d="M201.01,371.37c6.08,7.97,9.13,17.77,9.13,29.41,0,16.47-6.4,29.14-19.2,38-12.81,8.86-31.47,13.3-56,13.3H37.71v-188h91.85c22.92,0,40.51,4.39,52.77,13.16,12.26,8.77,18.4,20.68,18.4,35.72,0,9.13-2.19,17.28-6.58,24.44-4.38,7.17-10.52,12.81-18.39,16.92,10.74,3.4,19.15,9.09,25.24,17.05Zm-120.06-74.53v44.32h43.24c10.75,0,18.9-1.88,24.44-5.65,5.55-3.76,8.33-9.3,8.33-16.65s-2.78-12.84-8.33-16.52c-5.55-3.67-13.69-5.51-24.44-5.51h-43.24Zm76.68,116.83c5.82-3.76,8.73-9.58,8.73-17.46,0-15.57-11.55-23.36-34.65-23.36h-50.76v46.46h50.76c11.45,0,20.09-1.88,25.91-5.64Z"/></g></g></g></g></svg>